<?xml version="1.0" encoding="iso-8859-1"?>
<!-- Generator: Adobe Illustrator 19.0.0, SVG Export Plug-In . SVG Version: 6.00 Build 0)  -->
<svg version="1.1" id="Layer_1" xmlns="http://www.w3.org/2000/svg" xmlns:xlink="http://www.w3.org/1999/xlink" x="0px" y="0px"
	 viewBox="0 0 512 512" style="enable-background:new 0 0 512 512;" xml:space="preserve">
<path style="fill:#CC6BC2;" d="M213.829,305.429v20.349c0,6.798-4.088,12.93-10.364,15.546l-67.23,28.013
	c-14.204,5.919-23.455,22.004-23.455,37.391v81.078h286.304v-81.078c0-15.386-9.252-31.473-23.455-37.391l-67.23-28.013
	c-6.276-2.615-10.364-8.748-10.364-15.546v-20.349H213.829z"/>
<path style="fill:#FEBBA0;" d="M349.948,185.493v-30.438c0-51.823-42.01-93.832-93.832-93.832c-51.823,0-93.832,42.01-93.832,93.832
	h-0.368v30.438c-12.923,0-23.399,10.477-23.399,23.4c0,12.923,10.477,23.399,23.399,23.399v17.469
	c1.126,14.732,8.31,27.849,19.189,35.032l56.565,32.337c11.358,7.501,25.169,7.501,36.527,0l56.396-32.337
	c10.878-7.184,18.23-20.3,19.357-35.032v-17.469c12.923,0,23.4-10.477,23.4-23.399C373.347,195.97,362.871,185.493,349.948,185.493z
	"/>
<path style="fill:#703E41;" d="M300.709,162.581c18.275,0,35.158-5.928,48.859-15.948c-4.26-47.875-44.47-85.409-93.452-85.409
	c-47.282,0-86.388,34.973-92.879,80.46c25.074-0.116,47.129-12.976,60.041-32.433C235.18,140.427,265.349,162.581,300.709,162.581z"
	/>
<path style="fill:#CC6BC2;" d="M344.732,36.977v87.301c-43.792-12.758-88.812-15.96-133.217-9.593
	c-14.85,2.138-29.633,5.329-44.281,9.593V36.977c14.649-4.265,29.431-7.454,44.281-9.593
	C255.921,21.017,300.941,24.219,344.732,36.977z"/>
<path style="fill:#FFA036;" d="M111.379,315.444c-5.03-21.584-24.372-37.67-47.487-37.67s-42.459,16.085-47.487,37.67h-5.907v27.16
	h106.788v-27.16H111.379z"/>
<rect x="354.179" y="363.496" style="fill:#0C80D2;" width="147.375" height="124.31"/>
<path d="M294.028,221.799c-6.439,0-11.677-5.238-11.677-11.676c0-6.439,5.238-11.677,11.677-11.677s11.677,5.238,11.677,11.677
	C305.705,216.561,300.467,221.799,294.028,221.799z"/>
<path d="M217.836,221.799c-6.439,0-11.677-5.238-11.677-11.676c0-6.439,5.238-11.677,11.677-11.677s11.677,5.238,11.677,11.677
	C229.512,216.561,224.274,221.799,217.836,221.799z"/>
<path d="M255.976,278.764c-11.388,0-20.654-9.266-20.654-20.654c0-5.769,4.677-10.446,10.446-10.446h20.416
	c5.769,0,10.446,4.677,10.446,10.446C276.629,269.499,267.364,278.764,255.976,278.764z"/>
<path d="M63.891,263.188c-6.336,0-11.491-5.155-11.491-11.491c0-6.336,5.155-11.491,11.491-11.491s11.491,5.155,11.491,11.491
	C75.382,258.033,70.228,263.188,63.891,263.188z"/>
<path d="M81.793,325.89h-0.158c-5.769,0-10.446-4.677-10.446-10.446s4.677-10.446,10.446-10.446h0.158
	c5.769,0,10.446,4.677,10.446,10.446S87.562,325.89,81.793,325.89z"/>
<path d="M119.126,305.16c-8.688-22.633-30.361-37.831-55.234-37.831c-24.875,0-46.547,15.199-55.234,37.831
	c-4.892,0.87-8.606,5.144-8.606,10.284v27.16c0,5.769,4.677,10.446,10.446,10.446h106.788c5.769,0,10.446-4.677,10.446-10.446
	v-27.16C127.732,310.302,124.018,306.029,119.126,305.16z M106.84,332.158H20.944v-6.268h25.944c5.769,0,10.446-4.677,10.446-10.446
	s-4.677-10.446-10.446-10.446H32.163c6.947-10.284,18.651-16.778,31.728-16.778c17.91,0,33.253,12.169,37.314,29.594
	c0.736,3.157,2.859,5.698,5.635,7.039V332.158z"/>
<path d="M289.522,453.335h-0.137c-5.769,0-10.446-4.677-10.446-10.446c0-5.769,4.677-10.446,10.446-10.446h0.137
	c5.769,0,10.446,4.677,10.446,10.446C299.968,448.658,295.291,453.335,289.522,453.335z"/>
<path d="M289.522,419.559h-0.137c-5.769,0-10.446-4.677-10.446-10.446c0-5.769,4.677-10.446,10.446-10.446h0.137
	c5.769,0,10.446,4.677,10.446,10.446C299.968,414.882,295.291,419.559,289.522,419.559z"/>
<path d="M289.522,385.782h-0.137c-5.769,0-10.446-4.677-10.446-10.446c0-5.769,4.677-10.446,10.446-10.446h0.137
	c5.769,0,10.446,4.677,10.446,10.446C299.968,381.106,295.291,385.782,289.522,385.782z"/>
<path d="M222.516,453.335h-0.137c-5.769,0-10.446-4.677-10.446-10.446c0-5.769,4.677-10.446,10.446-10.446h0.137
	c5.769,0,10.446,4.677,10.446,10.446C232.962,448.658,228.285,453.335,222.516,453.335z"/>
<path d="M188.583,453.334h-39.191c-5.769,0-10.446-4.677-10.446-10.446s4.677-10.446,10.446-10.446h39.191
	c5.769,0,10.446,4.677,10.446,10.446S194.353,453.334,188.583,453.334z"/>
<path d="M222.516,419.559h-0.137c-5.769,0-10.446-4.677-10.446-10.446c0-5.769,4.677-10.446,10.446-10.446h0.137
	c5.769,0,10.446,4.677,10.446,10.446C232.962,414.882,228.285,419.559,222.516,419.559z"/>
<path d="M222.516,385.782h-0.137c-5.769,0-10.446-4.677-10.446-10.446c0-5.769,4.677-10.446,10.446-10.446h0.137
	c5.769,0,10.446,4.677,10.446,10.446C232.962,381.106,228.285,385.782,222.516,385.782z"/>
<path d="M71.085,160.124c-1.788,0-3.535,0.182-5.223,0.525v-22.462h13.58c5.769,0,10.446-4.677,10.446-10.446
	s-4.677-10.446-10.446-10.446h-13.58v-3.831h13.58c5.769,0,10.446-4.677,10.446-10.446c0-5.769-4.677-10.446-10.446-10.446H55.416
	c-5.769,0-10.446,4.677-10.446,10.446v57.632c-1.688-0.344-3.435-0.525-5.223-0.525c-14.4,0-26.116,11.715-26.116,26.116
	s11.715,26.116,26.116,26.116c5.875,0,11.302-1.951,15.669-5.238c4.368,3.286,9.794,5.238,15.669,5.238
	c14.4,0,26.116-11.715,26.116-26.116S85.485,160.124,71.085,160.124z M39.747,191.463c-2.88,0-5.223-2.343-5.223-5.223
	s2.343-5.223,5.223-5.223c2.88,0,5.223,2.343,5.223,5.223S42.627,191.463,39.747,191.463z M71.085,191.463
	c-2.88,0-5.223-2.343-5.223-5.223s2.343-5.223,5.223-5.223c2.88,0,5.223,2.343,5.223,5.223S73.965,191.463,71.085,191.463z"/>
<path d="M10.583,477.36h-0.137C4.677,477.36,0,482.037,0,487.806c0,5.769,4.677,10.446,10.446,10.446h0.137
	c5.769,0,10.446-4.677,10.446-10.446C21.029,482.037,16.352,477.36,10.583,477.36z"/>
<path d="M501.554,353.05h-26.33v-22.949c0-5.769-4.677-10.446-10.446-10.446h-73.552c-5.769,0-10.446,4.677-10.446,10.446v22.949
	h-17.078l-51.285-21.369c-2.39-0.996-3.935-3.312-3.935-5.903v-16.267l27.305-15.657c0.19-0.109,0.377-0.225,0.561-0.346
	c13.672-9.029,22.651-25.087,24.016-42.954c0.021-0.264,0.03-0.531,0.03-0.796v-8.671c13.565-4.412,23.398-17.178,23.398-32.196
	s-9.833-27.784-23.398-32.196v-21.64c0-6.083-1.08-19.287-5.216-32.556V36.977c0-4.644-3.066-8.73-7.524-10.029
	c-45.236-13.179-91.537-16.509-137.629-9.903c-15.361,2.213-30.741,5.545-45.712,9.902c-4.459,1.298-7.526,5.385-7.526,10.03v86.324
	c-2.982,9.333-5.317,30.749-5.317,31.754v21.64c-13.565,4.412-23.398,17.178-23.398,32.196s9.833,27.784,23.398,32.196v8.671
	c0,0.265,0.01,0.532,0.03,0.796c1.372,17.94,10.286,33.997,23.848,42.954c0.187,0.123,0.378,0.24,0.572,0.352l27.462,15.7v16.217
	c0,2.59-1.545,4.907-3.935,5.903l-67.231,28.013c-17.595,7.332-29.882,26.672-29.882,47.033v70.632H44.379
	c-5.769,0-10.446,4.677-10.446,10.446c0,5.769,4.677,10.446,10.446,10.446h457.175c5.769,0,10.446-4.677,10.446-10.446v-124.31
	C512,357.727,507.323,353.05,501.554,353.05z M338.41,141.542c-11.337,6.945-24.253,10.592-37.701,10.592
	c-23.439,0-45.111-11.352-58.57-29.844c31.634-1.462,63.24,2.061,94.35,10.541C337.281,135.701,337.931,138.605,338.41,141.542z
	 M177.68,44.917c11.639-3.075,23.486-5.489,35.318-7.193c40.566-5.816,81.33-3.395,121.289,7.189v65.735
	c-40.97-10.138-82.702-12.262-124.261-6.303c-10.825,1.56-21.656,3.674-32.346,6.312L177.68,44.917L177.68,44.917z M172.362,249.34
	v-17.048c0-5.769-4.677-10.446-10.446-10.446c-7.142,0-12.952-5.811-12.952-12.953c0-7.142,5.811-12.952,12.952-12.952
	c5.769,0,10.446-4.677,10.446-10.446v-27.682c0.239-0.877,0.368-1.802,0.368-2.756c0-1.173,0.024-2.343,0.073-3.51
	c18.29-2.169,35.163-10.315,48.252-23.257c16.792,27.512,46.88,44.738,79.655,44.738c13.565,0,26.711-2.884,38.793-8.429v20.896
	c0,5.769,4.677,10.446,10.446,10.446c7.142,0,12.952,5.811,12.952,12.952c0,7.142-5.811,12.953-12.952,12.953
	c-5.769,0-10.446,4.677-10.446,10.446v17.047c-0.948,11.047-6.441,21.17-14.417,26.57L269,308.069
	c-0.191,0.109-0.377,0.225-0.561,0.346c-7.83,5.173-17.182,5.172-25.012,0c-0.187-0.123-0.378-0.241-0.572-0.352l-56.249-32.157
	C178.623,270.5,173.323,260.616,172.362,249.34z M123.226,477.36v-70.632c0-11.774,7.32-23.703,17.026-27.748l67.231-28.013
	c10.2-4.252,16.791-14.138,16.791-25.188v-4.274c0,0,16.604,9.176,21.196,10.342V477.36H123.226z M343.731,432.441h-20.414
	c-5.769,0-10.446,4.677-10.446,10.446s4.677,10.446,10.446,10.446h20.414v24.026h-77.368V331.855
	c4.606-1.166,9.094-3.087,13.296-5.816l7.931-4.547v4.287c0,11.052,6.592,20.938,16.792,25.189l39.349,16.395L343.731,432.441
	L343.731,432.441z M401.673,340.547h52.659v12.503h-52.659V340.547z M491.108,477.36H364.624V373.943h126.484V477.36z"/>
<path d="M460.56,419.558h-0.158c-5.769,0-10.446-4.677-10.446-10.446s4.677-10.446,10.446-10.446h0.158
	c5.769,0,10.446,4.677,10.446,10.446S466.329,419.558,460.56,419.558z"/>
<path d="M425.656,419.559h-30.484c-5.769,0-10.446-4.677-10.446-10.446c0-5.769,4.677-10.446,10.446-10.446h30.484
	c5.769,0,10.446,4.677,10.446,10.446C436.102,414.882,431.425,419.559,425.656,419.559z"/>
<g>
</g>
<g>
</g>
<g>
</g>
<g>
</g>
<g>
</g>
<g>
</g>
<g>
</g>
<g>
</g>
<g>
</g>
<g>
</g>
<g>
</g>
<g>
</g>
<g>
</g>
<g>
</g>
<g>
</g>
</svg>
